# xmcd
#
# Track frame offsets: 
#        183
#        12888
#        24510
#        38368
#        51068
#        62075
#        74675
#        86583
#        99280
#        111368
#        123268
#        138695
#        153173
#        167665
#        183010
#        198255
#        211225
#        226623
#
# Disc length: 3216 seconds
#
# Revision: 0
# Processed by: cddbd v1.4PL0 Copyright (c) Steve Scherf et al.
# Submitted via: ExactAudioCopy v0.90b4
#
DISCID=e00c8e12
DTITLE=Billy Walker - Sing Me A Love Song
DYEAR=1993
DGENRE=Country
TTITLE0=Funny How Time Slips Away
TTITLE1=Charlie's Shoes
TTITLE2=Cross The Brazos At Waco
TTITLE3=Circumstances
TTITLE4=When A Man Loves A Woman
TTITLE5=She Goes Walking Through My Mind
TTITLE6=I'm Gonna Keep On Keep On Loving You
TTITLE7=Sing Me A Love Song To Baby
TTITLE8=My Mind Hangs On To You
TTITLE9=Love Me Back To Heaven
TTITLE10=Let's Just Be Lovers
TTITLE11=If You're Saving Part Of You For Someone Else
TTITLE12=When You Lay Your Body Down
TTITLE13=Won't Somebody Tell Me Why I Ain't Got You
TTITLE14=Love Is Such A Sweet Surprise
TTITLE15=She Don't Make Me Cry
TTITLE16=Till I Drink Milwaukee Dry
TTITLE17=Honky Tonkitis
EXTD=
EXTT0=
EXTT1=
EXTT2=
EXTT3=
EXTT4=
EXTT5=
EXTT6=
EXTT7=
EXTT8=
EXTT9=
EXTT10=
EXTT11=
EXTT12=
EXTT13=
EXTT14=
EXTT15=
EXTT16=
EXTT17=
PLAYORDER=
